<svg width="494" height="494" viewBox="0 0 494 494" fill="none" xmlns="http://www.w3.org/2000/svg">
<g clip-path="url(#clip0_1_2)">
<path d="M487.267 225.981C487.267 208.616 473.268 194.463 455.749 194.463H194.501L305.35 83.615C317.59 71.375 317.59 51.408 305.35 38.939L275.592 9.18C263.352 -3.06 243.385 -3.06 230.916 9.18L15.568 224.527C9.44801 230.647 6.31201 238.68 6.31201 246.789C6.31201 254.821 9.44801 262.931 15.568 269.051L230.916 484.399C243.156 496.638 263.123 496.638 275.592 484.399L305.35 454.64C317.59 442.4 317.59 422.433 305.35 409.964L194.501 299.498H455.595C472.961 299.498 487.114 285.345 487.114 267.979L487.267 225.981Z" fill="black"/>
</g>
<defs>
<clipPath id="clip0_1_2">
<rect width="493.578" height="493.578" fill="white"/>
</clipPath>
</defs>
</svg>
