<svg width="494" height="494" viewBox="0 0 494 494" fill="none" xmlns="http://www.w3.org/2000/svg">
<g clip-path="url(#clip0_1_2)">
<path d="M6.31102 267.597C6.31102 284.962 20.31 299.115 37.829 299.115L299.077 299.115L188.228 409.963C175.988 422.203 175.988 442.17 188.228 454.639L217.986 484.398C230.226 496.638 250.193 496.638 262.662 484.398L478.01 269.051C484.13 262.931 487.266 254.898 487.266 246.789C487.266 238.757 484.13 230.647 478.01 224.527L262.662 9.17902C250.422 -3.05998 230.455 -3.05998 217.986 9.17902L188.228 38.938C175.988 51.178 175.988 71.145 188.228 83.614L299.077 194.08L37.983 194.08C20.617 194.08 6.464 208.233 6.464 225.599L6.31102 267.597Z" fill="black"/>
</g>
<defs>
<clipPath id="clip0_1_2">
<rect width="493.578" height="493.578" fill="white" transform="translate(493.578 493.578) rotate(-180)"/>
</clipPath>
</defs>
</svg>
