<svg width="2405" height="2407" viewBox="0 0 2405 2407" fill="none" xmlns="http://www.w3.org/2000/svg">
<path fill-rule="evenodd" clip-rule="evenodd" d="M1091.95 2.48C874.157 29.6471 699.762 91.5499 537.443 199.3C245.717 392.949 51.7836 704.526 7.83615 1050.17C-5.36785 1154.02 -1.45082 1325.17 16.3153 1420.22C100.88 1872.77 431.3 2236.43 873.605 2363.77C985.618 2396.02 1063.85 2406.09 1202.37 2406.09C1340.89 2406.09 1419.13 2396.02 1531.14 2363.77C1974.02 2236.26 2303.02 1873.95 2388.68 1419.4C2403.93 1338.45 2409.96 1153.67 2400.09 1069.74C2358.11 712.914 2164.48 396.562 1867.3 199.3C1728.27 107.007 1573.95 45.9404 1403.75 15.8631C1335.38 3.78114 1146.52 -4.32774 1091.95 2.48ZM1399.97 501.414C1569.94 538.869 1719.22 636.791 1818.15 775.74C2016.18 1053.86 1982.76 1430.18 1738.75 1669.97C1607.65 1798.8 1443.78 1865.35 1257.58 1865.35C1146.97 1865.35 1041.21 1841.52 952.788 1796.7C926.996 1783.62 926.874 1783.62 888.86 1794.06C706.864 1844 561.625 1881.28 559.051 1878.7C557.336 1876.99 577.497 1794.64 603.853 1695.7L651.764 1515.82L625.431 1452.9C585.494 1357.48 574.132 1305.95 570.558 1204.1C568.756 1152.84 570.139 1100.05 573.911 1075.86C619.567 783.146 839.938 555.185 1132.63 497.883C1200.07 484.68 1331.93 486.422 1399.97 501.414ZM1176.22 620.91C990.192 647.45 823.485 774.032 744.767 948.518C707.735 1030.61 699.657 1071.83 699.797 1177.96C699.954 1292.73 708.776 1330.62 758.75 1431.21L790.778 1495.68L763.817 1595.98C748.992 1651.15 737.81 1697.23 738.967 1698.39C740.129 1699.55 784.978 1688.79 838.63 1674.48C892.283 1660.17 939.102 1648.46 942.67 1648.46C946.233 1648.46 968.898 1658.73 993.028 1671.28C1161.15 1758.7 1343.1 1760.84 1510.39 1677.35C1654.34 1605.51 1767.41 1461.46 1804.71 1302.41C1820.41 1235.43 1819.04 1099.36 1802.03 1036.9C1787.93 985.101 1752.78 907.167 1725.05 866.192C1602.9 685.717 1389.73 590.45 1176.22 620.91ZM1078.77 878.396C1100.43 896.606 1139.61 980.094 1142.71 1014.65C1145.15 1041.72 1140.44 1051.91 1100.21 1106.68C1091.24 1118.89 1091.55 1121.07 1105.68 1145.17C1130.87 1188.13 1177.33 1239.42 1219.03 1270.32C1266.57 1305.55 1330.33 1336.62 1344.18 1331.31C1349.6 1329.23 1364.43 1312.23 1377.12 1293.55C1403.22 1255.14 1413.88 1247.66 1442.58 1247.66C1468.12 1247.66 1540.4 1284.29 1569.73 1312.11C1587.47 1328.94 1591.75 1337.16 1591.75 1354.46C1591.75 1400.83 1546.56 1453.45 1490.68 1472.12C1414.29 1497.64 1298.41 1465.5 1180.66 1386.13C1035.63 1288.37 915.437 1108.71 924.945 1003.88C928.31 966.798 946.233 921.218 965.835 899.894C1000.67 862.004 1048.46 852.902 1078.77 878.396Z" fill="black"/>
</svg>
