<svg width="2405" height="2392" viewBox="0 0 2405 2392" fill="none" xmlns="http://www.w3.org/2000/svg">
<path fill-rule="evenodd" clip-rule="evenodd" d="M1092.07 2.48C848.104 32.9232 656.426 107.53 476.268 242.18C420.377 283.95 310.402 390.254 266.032 445.39C127.653 617.361 38.5528 822.441 8.87601 1037.3C-2.95867 1122.94 -2.95867 1285.26 8.87601 1370.9C38.3262 1584.09 129.041 1793.19 265.381 1962.13C310.501 2018.04 420.29 2124.18 476.268 2166.02C619.057 2272.74 783.197 2347.62 952.252 2383.18C975.247 2388.01 999.12 2391.97 1005.3 2391.97C1016.31 2391.97 1016.54 2383.36 1016.54 1970.84V1549.71H862.583H708.621V1378.36V1207H862.095H1015.57L1017.95 1019.67C1020.65 806.712 1024.51 782.153 1069.76 690.103C1116.4 595.247 1214.9 516.79 1321.56 489.565C1406.05 467.992 1543.12 467.265 1689.04 487.613L1736.97 494.299V640.985V787.671L1630.94 790.186C1505.4 793.16 1481.72 799.457 1440.25 840.919C1395.75 885.413 1391.28 906.092 1391.28 1067.6V1204.1L1557.19 1205.64L1723.09 1207.18L1712.6 1275.34C1686.83 1442.74 1673.06 1535.74 1673.06 1542.45C1673.06 1548.06 1640.71 1549.71 1530.72 1549.71H1388.37V1970.84C1388.37 2383.36 1388.61 2391.97 1399.62 2391.97C1435.93 2391.97 1565.36 2356.58 1644.96 2324.89C1798.67 2263.69 1916.85 2186.98 2038.28 2069.59C2136.05 1975.08 2199.16 1892.98 2260.38 1780.7C2359.71 1598.49 2404.87 1418.29 2404.87 1204.1C2404.87 998.438 2367.47 839.867 2276.07 658.086C2215.2 537.022 2142.53 439.384 2038.28 338.609C1858.23 164.559 1652.26 59.7882 1403.78 15.8631C1335.42 3.78114 1146.62 -4.32774 1092.07 2.48Z" fill="black"/>
</svg>
