<svg width="2402" height="2405" viewBox="0 0 2402 2405" fill="none" xmlns="http://www.w3.org/2000/svg">
<path fill-rule="evenodd" clip-rule="evenodd" d="M1103.06 1.19231C925.578 22.8296 803.888 56.9438 669.832 122.634C470.388 220.365 290.96 383.977 175.077 573.786C81.9513 726.316 22.2369 902.347 4.08143 1077.84C-4.08389 1156.78 0.611877 1331.36 12.7524 1400.43C95.7307 1872.43 436.338 2245.4 895.962 2367.55C1005.46 2396.65 1075.34 2405.09 1204.76 2404.87C1337.69 2404.65 1417.89 2393.68 1536.77 2359.48C1943.71 2242.42 2263.97 1911.32 2369.37 1498.71C2395.62 1395.96 2401.44 1342.29 2401.44 1202.94C2401.44 1063.59 2395.62 1009.92 2369.37 907.168C2263.98 494.614 1943.7 163.463 1536.88 46.4301C1430.9 15.9405 1342.49 2.96976 1225.1 0.686959C1169.17 -0.39926 1114.25 -0.172723 1103.06 1.19231ZM1563.12 505.442C1652.83 522.81 1734.99 568.942 1795.47 635.916C1836.62 681.49 1861.78 724.196 1883.94 786.104L1902.16 836.994L1903.87 1179.55C1905.84 1571.08 1905.24 1577.9 1861.53 1667.63C1811.07 1771.22 1728.35 1844.36 1617.33 1883.57L1570.89 1899.98H1204.76H838.63L787.168 1883.12C647.684 1837.42 537.088 1714.73 507.513 1572.86C494.169 1508.86 494.448 894.604 507.85 829.756C540.959 669.542 674.039 538.052 835.713 505.814C893.044 494.382 1504.36 494.068 1563.12 505.442ZM873.709 631.263C802.604 641.986 721.026 694.386 677.857 757.067C668.53 770.607 653.832 799.36 645.184 820.962L629.476 860.229L627.657 1176.8C626.419 1392.12 627.918 1505.45 632.347 1531.13C651.792 1643.91 738.391 1736.85 851.09 1765.89C904.388 1779.62 1499.32 1779.62 1552.62 1765.89C1664.64 1737.02 1753.13 1641.91 1771.02 1531.13C1780.83 1470.39 1779.01 910.346 1768.85 862.424C1746.67 757.874 1670.77 675.182 1562.75 637.908C1539.83 629.991 1491.42 628.492 1222.2 627.36C1049.59 626.634 892.771 628.388 873.709 631.263ZM1619.12 762.225C1667.84 793.603 1665.45 874.547 1615.03 900.605C1590.59 913.239 1552.85 911.972 1529.84 897.753C1505.18 882.522 1489.34 843.715 1495.15 812.778C1499.67 788.649 1530.25 755.359 1551.99 750.892C1571.31 746.919 1603.89 752.42 1619.12 762.225ZM1292.17 866.165C1416.8 897.968 1515.25 998.597 1544.9 1124.52C1555.41 1169.15 1554.03 1248.96 1542.03 1290.49C1475.28 1521.46 1212.32 1619.56 1013.52 1487.67C938.683 1438.02 884.367 1352.26 866.63 1255.72C858.122 1209.38 858.07 1199.59 866.113 1150.41C889.255 1008.89 989.221 898.153 1123.4 865.404C1164.72 855.32 1251.2 855.71 1292.17 866.165ZM1133.41 990.424C1065.28 1015.66 1006.78 1079.4 992.278 1144.19C967.421 1255.22 1017.12 1357.19 1119.45 1405.07C1153.52 1421.01 1164.41 1423.24 1208.39 1423.24C1254.57 1423.25 1261.97 1421.55 1302.45 1401.55C1352.85 1376.65 1387.01 1342.29 1410.44 1292.97C1423.8 1264.82 1425.6 1253.79 1425.57 1200.04C1425.53 1144.9 1423.95 1135.82 1409.08 1105.47C1388.38 1063.22 1346.12 1021.29 1302.44 999.654C1257.18 977.238 1180.33 973.039 1133.41 990.424Z" fill="black"/>
</svg>
